<?xml version="1.0" standalone="no"?>
<!DOCTYPE svg PUBLIC "-//W3C//DTD SVG 20010904//EN"
 "http://www.w3.org/TR/2001/REC-SVG-20010904/DTD/svg10.dtd">
<svg version="1.0" xmlns="http://www.w3.org/2000/svg"
 width="512.000000pt" height="512.000000pt" viewBox="0 0 512.000000 512.000000"
 preserveAspectRatio="xMidYMid meet">

<g transform="translate(0.000000,512.000000) scale(0.100000,-0.100000)"
fill="#000000" stroke="none">
<path d="M2915 4622 c-367 -188 -802 -441 -1183 -687 -162 -104 -188 -124
-220 -173 l-37 -55 0 -1708 0 -1708 22 -22 c14 -14 33 -22 53 -21 79 2 892
455 1394 777 203 130 227 150 260 217 l26 52 0 1255 c0 691 -3 1456 -7 1700
-6 413 -8 446 -25 463 -10 10 -30 18 -45 18 -16 0 -122 -49 -238 -108z m249
23 c3 -8 6 -706 6 -1551 1 -1267 -1 -1539 -12 -1549 -11 -11 -297 -176 -1411
-818 -114 -66 -209 -118 -212 -116 -2 3 -5 695 -6 1540 -2 1663 -5 1564 50
1613 11 10 78 51 148 92 l127 73 17 -28 c19 -32 57 -45 91 -32 13 5 192 106
398 225 407 235 433 255 463 349 l17 55 138 81 c137 80 175 94 186 66z m-484
-270 c0 -28 0 -28 -232 -163 l-158 -91 0 32 c0 31 6 36 183 138 100 59 188
107 195 108 6 1 12 -10 12 -24z m-464 -249 c6 -16 -12 -56 -30 -68 -38 -25
-51 27 -16 62 24 24 39 25 46 6z m292 -3118 c30 -30 5 -124 -44 -169 -35 -32
-195 -126 -228 -135 -59 -14 -75 72 -28 147 23 35 50 56 138 106 110 64 140
73 162 51z"/>
<path d="M1945 3587 c-275 -160 -255 -124 -255 -454 l0 -252 29 -20 c16 -12
31 -21 34 -21 2 0 2 102 -1 228 -5 245 1 290 43 340 22 26 377 239 435 260
l25 9 -32 17 c-18 9 -40 16 -50 16 -10 -1 -112 -56 -228 -123z"/>
<path d="M1980 2727 c-250 -146 -246 -143 -269 -191 -19 -39 -21 -60 -21 -282
0 -177 3 -244 13 -256 18 -23 79 -58 102 -58 22 0 396 210 433 244 58 52 65
98 55 381 l-8 209 -40 28 c-22 15 -51 27 -65 27 -14 0 -104 -46 -200 -102z
m134 -146 c4 -5 2 -20 -3 -34 -8 -22 -7 -24 9 -20 31 8 110 -27 110 -48 0 -26
-99 -179 -116 -179 -24 0 -16 33 21 88 20 29 34 56 31 61 -3 5 -19 14 -36 21
-16 7 -30 18 -31 24 -1 6 -27 -67 -58 -163 -52 -160 -77 -208 -97 -189 -3 4
-1 21 5 39 9 26 9 29 -3 20 -11 -9 -24 -8 -57 5 -79 30 -79 32 -17 131 31 48
61 89 67 91 26 9 20 -30 -13 -81 -20 -31 -36 -60 -36 -66 0 -5 16 -15 35 -21
19 -6 35 -17 35 -23 0 -7 26 65 56 158 31 94 61 176 66 183 12 14 25 16 32 3z"/>
<path d="M2835 2124 c-110 -57 -196 -246 -151 -333 36 -68 113 -62 190 14 81
81 126 214 96 285 -21 51 -76 65 -135 34z m51 -124 c13 0 24 -4 24 -9 0 -10
-128 -171 -135 -171 -3 0 -5 43 -5 96 l0 97 46 -7 c26 -3 57 -6 70 -6z"/>
<path d="M1967 1836 c-108 -62 -207 -122 -219 -132 -11 -10 -29 -37 -39 -59
-16 -35 -19 -68 -19 -265 0 -124 3 -235 6 -248 4 -12 19 -29 35 -38 l29 -15 0
251 c0 233 1 254 20 291 23 45 46 60 290 199 91 52 167 95 169 97 9 6 -34 32
-54 33 -11 0 -109 -51 -218 -114z"/>
<path d="M2775 4706 c-18 -13 -18 -14 6 -26 13 -7 42 -13 64 -13 22 0 51 6 64
13 24 12 24 13 6 26 -10 8 -42 14 -70 14 -28 0 -60 -6 -70 -14z"/>
<path d="M3818 4069 c-15 -8 -18 -25 -18 -105 0 -53 3 -94 8 -92 4 2 42 22 85
46 56 31 77 49 77 63 0 28 -27 77 -49 89 -25 13 -81 12 -103 -1z"/>
<path d="M1298 3399 l-28 -21 0 -168 c0 -167 0 -169 26 -199 31 -38 62 -40 98
-6 26 24 26 25 26 170 0 157 -9 199 -51 229 -30 20 -38 20 -71 -5z"/>
<path d="M1308 2904 c-15 -8 -32 -23 -38 -34 -13 -24 -13 -290 0 -324 24 -65
82 -85 125 -41 24 23 25 28 25 170 0 157 -9 199 -51 229 -28 19 -27 19 -61 0z"/>
<path d="M4105 1049 c-46 -35 -50 -49 -15 -66 50 -25 60 -18 60 42 0 30 -1 55
-2 55 -2 0 -21 -14 -43 -31z"/>
<path d="M3330 1020 c0 -59 17 -66 49 -22 l20 29 -29 21 c-16 12 -32 22 -35
22 -3 0 -5 -22 -5 -50z"/>
<path d="M3240 826 c0 -32 2 -34 46 -40 81 -11 84 -10 84 28 0 38 -14 46 -87
46 -42 0 -43 -1 -43 -34z"/>
<path d="M4103 853 c-27 -4 -33 -9 -33 -28 0 -36 31 -48 101 -40 l59 7 0 34 0
34 -47 -2 c-27 0 -63 -3 -80 -5z"/>
<path d="M3900 694 c0 -33 3 -36 63 -64 l62 -30 3 31 c4 39 1 42 -70 73 l-58
26 0 -36z"/>
<path d="M3493 695 c-49 -22 -53 -27 -53 -60 l0 -35 33 14 c85 36 87 38 87 73
0 18 -3 33 -7 33 -5 0 -32 -11 -60 -25z"/>
<path d="M3825 645 c-4 -25 -5 -48 -2 -51 2 -3 8 16 12 41 3 26 4 49 2 52 -3
3 -9 -16 -12 -42z"/>
<path d="M3632 660 c0 -14 4 -36 8 -50 6 -20 8 -21 8 -5 0 11 -4 34 -8 50 -7
27 -8 27 -8 5z"/>
</g>
</svg>
