<?xml version="1.0" standalone="no"?>
<!DOCTYPE svg PUBLIC "-//W3C//DTD SVG 20010904//EN"
 "http://www.w3.org/TR/2001/REC-SVG-20010904/DTD/svg10.dtd">
<svg version="1.0" xmlns="http://www.w3.org/2000/svg"
 width="512.000000pt" height="512.000000pt" viewBox="0 0 512.000000 512.000000"
 preserveAspectRatio="xMidYMid meet">

<g transform="translate(0.000000,512.000000) scale(0.100000,-0.100000)"
fill="#000000" stroke="none">
<path d="M545 4856 c-95 -30 -162 -88 -204 -176 l-26 -55 0 -1860 0 -1860 36
-65 c23 -43 52 -78 85 -102 94 -72 20 -68 1205 -68 1050 0 1069 0 1123 20 69
26 134 83 171 151 27 50 30 64 33 172 2 64 7 117 11 117 7 0 116 -198 116
-212 0 -4 -21 -21 -47 -37 -97 -62 -102 -133 -18 -276 29 -49 83 -142 121
-206 76 -130 108 -156 180 -146 25 3 152 71 371 197 183 106 493 285 688 397
195 112 367 217 382 233 29 31 44 85 34 122 -9 36 -234 421 -257 440 -37 31
-86 39 -136 22 -25 -9 -46 -14 -48 -12 -1 2 -29 50 -63 108 l-60 105 -7 190
c-15 448 -35 523 -228 862 -128 225 -144 245 -212 278 -48 24 -64 27 -120 23
-98 -8 -194 -75 -230 -162 -13 -30 -15 -31 -82 -32 -85 -1 -146 -26 -202 -84
-22 -23 -46 -60 -53 -82 -8 -27 -16 -37 -26 -33 -7 3 -36 5 -63 5 l-49 0 0
890 c0 876 0 890 -21 945 -25 68 -99 146 -166 178 l-48 22 -1075 2 c-849 1
-1083 -1 -1115 -11z m2217 -141 c66 -46 88 -99 88 -212 l0 -93 -1210 0 -1210
0 0 89 c0 78 3 95 28 142 22 43 38 59 81 81 l54 28 1063 -2 1062 -3 44 -30z
m88 -1182 l-1 -758 -33 -38 -32 -39 -175 303 c-104 182 -189 318 -212 340 -91
89 -236 92 -333 6 -79 -70 -112 -175 -82 -262 8 -23 135 -249 282 -504 147
-255 265 -465 262 -468 -3 -3 -98 2 -211 11 -188 16 -209 16 -253 2 -182 -61
-231 -298 -87 -424 21 -19 177 -103 348 -188 171 -84 315 -158 321 -164 7 -7
-339 -10 -1102 -10 l-1112 0 0 1475 0 1475 1210 0 1210 0 0 -757z m-555 -261
c20 -13 56 -64 108 -153 42 -74 180 -312 305 -529 l229 -395 36 -3 c30 -3 39
1 53 24 20 30 27 14 -91 222 -43 76 -58 112 -58 141 0 105 128 169 213 106 43
-32 70 -32 104 0 23 21 25 30 20 63 -11 73 40 139 121 156 24 5 45 -1 89 -24
l57 -31 32 19 c30 17 32 23 37 84 4 53 10 72 30 93 33 36 72 55 111 55 62 0
89 -29 191 -207 203 -354 212 -387 230 -793 l11 -265 70 -123 c38 -68 65 -127
61 -132 -21 -19 -1038 -600 -1046 -598 -5 2 -37 55 -71 118 l-62 114 -165 111
c-125 84 -247 152 -510 285 -290 147 -349 180 -367 209 -44 65 -18 157 52 187
30 12 65 12 295 -7 144 -11 272 -18 286 -15 36 9 48 49 27 89 -9 18 -142 250
-296 516 -288 498 -307 534 -307 573 0 94 124 159 205 110z m2288 -1909 c59
-103 106 -192 104 -198 -5 -11 -1358 -795 -1373 -795 -13 0 -219 360 -219 383
0 14 155 108 650 393 358 207 659 381 670 389 47 32 55 24 168 -172z m-1733
-283 c0 -152 -10 -188 -62 -237 -59 -55 -9 -53 -1151 -53 l-1054 0 -44 23
c-24 13 -57 43 -74 66 -30 42 -30 45 -33 192 l-4 149 1211 0 1211 0 0 -140z"/>
<path d="M702 4624 c-26 -18 -30 -65 -6 -88 11 -12 36 -16 99 -16 75 0 85 2
99 22 22 31 20 45 -9 73 -21 22 -33 25 -92 25 -46 0 -76 -5 -91 -16z"/>
<path d="M1455 4615 c-29 -28 -31 -42 -9 -73 15 -21 21 -22 193 -22 160 0 180
2 194 18 23 25 21 58 -3 82 -18 18 -33 20 -185 20 -163 0 -166 0 -190 -25z"/>
<path d="M1555 4069 c-243 -35 -448 -221 -510 -464 -19 -76 -19 -214 0 -290
56 -221 232 -395 454 -451 77 -19 253 -15 316 7 51 18 67 55 41 94 -17 26 -21
27 -65 19 -25 -5 -98 -9 -161 -9 -115 0 -115 0 -201 42 -255 125 -352 420
-222 677 31 60 109 145 172 185 159 101 379 97 540 -10 76 -51 125 -110 176
-213 35 -70 44 -81 68 -84 35 -4 67 22 67 55 0 36 -52 141 -104 210 -127 168
-358 262 -571 232z"/>
<path d="M1686 3511 l-181 -180 -71 70 c-43 41 -80 69 -93 69 -27 0 -61 -34
-61 -62 0 -28 198 -228 225 -228 11 0 105 86 232 212 224 224 238 243 195 281
-40 36 -58 24 -246 -162z"/>
<path d="M1320 1040 c-11 -11 -20 -29 -20 -40 0 -11 9 -29 20 -40 19 -19 33
-20 318 -20 328 0 342 2 342 59 0 60 -6 61 -338 61 -289 0 -303 -1 -322 -20z"/>
</g>
</svg>
